{
  "accessors": [
    {
      "bufferView": 2,
      "componentType": 5126,
      "count": 4486,
      "max": [
        614.476806640625,
        612.3087158203125,
        128.47030639648438
      ],
      "min": [
        122.87979125976563,
        118.48199462890625,
        3.6429998874664307
      ],
      "type": "VEC3"
    },
    {
      "bufferView": 2,
      "byteOffset": 53832,
      "componentType": 5126,
      "count": 4486,
      "max": [
        1.0,
        1.0,
        1.0
      ],
      "min": [
        -1.0,
        -1.0,
        -1.0
      ],
      "type": "VEC3"
    },
    {
      "bufferView": 3,
      "componentType": 5126,
      "count": 4486,
      "max": [
        1.0,
        1.0,
        0.2939808964729309,
        1.0
      ],
      "min": [
        -1.0,
        -1.0,
        -0.25963908433914185,
        -1.0
      ],
      "type": "VEC4"
    },
    {
      "bufferView": 1,
      "componentType": 5126,
      "count": 4486,
      "max": [
        12.567099571228027,
        1.0
      ],
      "min": [
        0.0005000000237487257,
        0.0
      ],
      "type": "VEC2"
    },
    {
      "bufferView": 0,
      "componentType": 5125,
      "count": 8268,
      "type": "SCALAR"
    },
    {
      "bufferView": 2,
      "byteOffset": 107664,
      "componentType": 5126,
      "count": 697,
      "max": [
        728.8078002929688,
        726.407470703125,
        124.44719696044922
      ],
      "min": [
        7.5479736328125,
        5.147674560546875,
        0.0
      ],
      "type": "VEC3"
    },
    {
      "bufferView": 2,
      "byteOffset": 116028,
      "componentType": 5126,
      "count": 697,
      "max": [
        0.15269587934017181,
        0.15199539065361023,
        1.0
      ],
      "min": [
        -0.12180212140083313,
        -0.1375982016324997,
        0.9880760908126831
      ],
      "type": "VEC3"
    },
    {
      "bufferView": 1,
      "byteOffset": 35888,
      "componentType": 5126,
      "count": 697,
      "max": [
        4.462800025939941,
        4.507800102233887
      ],
      "min": [
        0.0,
        0.0005000000237487257
      ],
      "type": "VEC2"
    },
    {
      "bufferView": 0,
      "byteOffset": 33072,
      "componentType": 5125,
      "count": 1176,
      "type": "SCALAR"
    },
    {
      "bufferView": 2,
      "byteOffset": 124392,
      "componentType": 5126,
      "count": 3672,
      "max": [
        736.4774169921875,
        732.7442016601563,
        166.13870239257813
      ],
      "min": [
        0.0,
        0.0,
        118.73159790039063
      ],
      "type": "VEC3"
    },
    {
      "bufferView": 2,
      "byteOffset": 168456,
      "componentType": 5126,
      "count": 3672,
      "max": [
        1.0,
        1.0,
        1.0
      ],
      "min": [
        -1.0,
        -1.0,
        -1.0
      ],
      "type": "VEC3"
    },
    {
      "bufferView": 1,
      "byteOffset": 41464,
      "componentType": 5126,
      "count": 3672,
      "max": [
        6.7642998695373535,
        6.7657999992370605
      ],
      "min": [
        0.0,
        0.0
      ],
      "type": "VEC2"
    },
    {
      "bufferView": 0,
      "byteOffset": 37776,
      "componentType": 5125,
      "count": 5976,
      "type": "SCALAR"
    },
    {
      "bufferView": 2,
      "byteOffset": 212520,
      "componentType": 5126,
      "count": 2016,
      "max": [
        602.8128051757813,
        600.4124755859375,
        163.07180786132813
      ],
      "min": [
        133.54298400878906,
        131.14268493652344,
        131.8184051513672
      ],
      "type": "VEC3"
    },
    {
      "bufferView": 2,
      "byteOffset": 236712,
      "componentType": 5126,
      "count": 2016,
      "max": [
        0.9968760013580322,
        0.9968760013580322,
        0.0068003642372787
      ],
      "min": [
        -0.9968760013580322,
        -0.9968760013580322,
        -0.006900150328874588
      ],
      "type": "VEC3"
    },
    {
      "bufferView": 1,
      "byteOffset": 70840,
      "componentType": 5126,
      "count": 2016,
      "max": [
        2.503200054168701,
        0.367900013923645
      ],
      "min": [
        -1.5029000043869019,
        0.22840000689029694
      ],
      "type": "VEC2"
    },
    {
      "bufferView": 0,
      "byteOffset": 61680,
      "componentType": 5125,
      "count": 5184,
      "type": "SCALAR"
    },
    {
      "bufferView": 2,
      "byteOffset": 260904,
      "componentType": 5126,
      "count": 16992,
      "max": [
        607.098876953125,
        604.6986083984375,
        164.897705078125
      ],
      "min": [
        129.2568817138672,
        126.85658264160156,
        131.595703125
      ],
      "type": "VEC3"
    },
    {
      "bufferView": 2,
      "byteOffset": 464808,
      "componentType": 5126,
      "count": 16992,
      "max": [
        0.9712989926338196,
        0.971276044845581,
        0.9909805059432983
      ],
      "min": [
        -0.971276044845581,
        -0.9712989926338196,
        -0.9643688201904297
      ],
      "type": "VEC3"
    },
    {
      "bufferView": 1,
      "byteOffset": 86968,
      "componentType": 5126,
      "count": 16992,
      "max": [
        2.5039000511169434,
        0.9661999940872192
      ],
      "min": [
        -1.503999948501587,
        0.0746999979019165
      ],
      "type": "VEC2"
    },
    {
      "bufferView": 0,
      "byteOffset": 82416,
      "componentType": 5125,
      "count": 60480,
      "type": "SCALAR"
    }
  ],
  "asset": {
    "extras": {
      "author": "filthycent (https://sketchfab.com/filthycent)",
      "license": "CC-BY-4.0 (http://creativecommons.org/licenses/by/4.0/)",
      "source": "https://sketchfab.com/3d-models/arena-fcd68db308a349ec8cb42641376262c8",
      "title": "Arena"
    },
    "generator": "Sketchfab-12.68.0",
    "version": "2.0"
  },
  "bufferViews": [
    {
      "buffer": 0,
      "byteLength": 324336,
      "name": "floatBufferViews",
      "target": 34963
    },
    {
      "buffer": 0,
      "byteLength": 222904,
      "byteOffset": 324336,
      "byteStride": 8,
      "name": "floatBufferViews",
      "target": 34962
    },
    {
      "buffer": 0,
      "byteLength": 668712,
      "byteOffset": 547240,
      "byteStride": 12,
      "name": "floatBufferViews",
      "target": 34962
    },
    {
      "buffer": 0,
      "byteLength": 71776,
      "byteOffset": 1215952,
      "byteStride": 16,
      "name": "floatBufferViews",
      "target": 34962
    }
  ],
  "buffers": [
    {
      "byteLength": 1287728,
      "uri": "scene.bin"
    }
  ],
  "images": [
    {
      "uri": "textures/Material__25_baseColor.jpeg"
    },
    {
      "uri": "textures/Material__25_normal.png"
    },
    {
      "uri": "textures/Material__26_baseColor.png"
    },
    {
      "uri": "textures/Material__27_baseColor.jpeg"
    },
    {
      "uri": "textures/Material__28_baseColor.png"
    }
  ],
  "materials": [
    {
      "doubleSided": true,
      "name": "Material__25",
      "normalTexture": {
        "index": 1
      },
      "pbrMetallicRoughness": {
        "baseColorTexture": {
          "index": 0
        },
        "metallicFactor": 0.0
      }
    },
    {
      "doubleSided": true,
      "name": "Material__26",
      "pbrMetallicRoughness": {
        "baseColorTexture": {
          "index": 2
        },
        "metallicFactor": 0.0
      }
    },
    {
      "doubleSided": true,
      "name": "Material__27",
      "pbrMetallicRoughness": {
        "baseColorTexture": {
          "index": 3
        },
        "metallicFactor": 0.0
      }
    },
    {
      "doubleSided": true,
      "name": "Material__28",
      "pbrMetallicRoughness": {
        "baseColorTexture": {
          "index": 4
        },
        "metallicFactor": 0.0
      }
    }
  ],
  "meshes": [
    {
      "name": "Object_0",
      "primitives": [
        {
          "attributes": {
            "NORMAL": 1,
            "POSITION": 0,
            "TANGENT": 2,
            "TEXCOORD_0": 3
          },
          "indices": 4,
          "material": 0,
          "mode": 4
        }
      ]
    },
    {
      "name": "Object_1",
      "primitives": [
        {
          "attributes": {
            "NORMAL": 6,
            "POSITION": 5,
            "TEXCOORD_0": 7
          },
          "indices": 8,
          "material": 1,
          "mode": 4
        }
      ]
    },
    {
      "name": "Object_2",
      "primitives": [
        {
          "attributes": {
            "NORMAL": 10,
            "POSITION": 9,
            "TEXCOORD_0": 11
          },
          "indices": 12,
          "material": 2,
          "mode": 4
        }
      ]
    },
    {
      "name": "Object_3",
      "primitives": [
        {
          "attributes": {
            "NORMAL": 14,
            "POSITION": 13,
            "TEXCOORD_0": 15
          },
          "indices": 16,
          "material": 3,
          "mode": 4
        }
      ]
    },
    {
      "name": "Object_4",
      "primitives": [
        {
          "attributes": {
            "NORMAL": 18,
            "POSITION": 17,
            "TEXCOORD_0": 19
          },
          "indices": 20,
          "material": 3,
          "mode": 4
        }
      ]
    }
  ],
  "nodes": [
    {
      "children": [
        1
      ],
      "matrix": [
        0.02500000037252903,
        0.0,
        0.0,
        0.0,
        0.0,
        5.551115205843844e-18,
        -0.02500000037252903,
        0.0,
        0.0,
        0.02500000037252903,
        5.551115205843844e-18,
        0.0,
        0.0,
        0.0,
        0.0,
        1.0
      ],
      "name": "Sketchfab_model"
    },
    {
      "children": [
        2
      ],
      "matrix": [
        1.0,
        0.0,
        0.0,
        0.0,
        0.0,
        1.0,
        0.0,
        0.0,
        0.0,
        0.0,
        1.0,
        0.0,
        -368.1778869628906,
        -365.777587890625,
        -3.6429998874664307,
        1.0
      ],
      "name": "arena.obj.cleaner.gles"
    },
    {
      "children": [
        3,
        4,
        5,
        6,
        7
      ],
      "name": "Object_2"
    },
    {
      "mesh": 0,
      "name": "Object_3"
    },
    {
      "mesh": 1,
      "name": "Object_4"
    },
    {
      "mesh": 2,
      "name": "Object_5"
    },
    {
      "mesh": 3,
      "name": "Object_6"
    },
    {
      "mesh": 4,
      "name": "Object_7"
    }
  ],
  "samplers": [
    {
      "magFilter": 9729,
      "minFilter": 9987,
      "wrapS": 10497,
      "wrapT": 10497
    }
  ],
  "scene": 0,
  "scenes": [
    {
      "name": "Sketchfab_Scene",
      "nodes": [
        0
      ]
    }
  ],
  "textures": [
    {
      "sampler": 0,
      "source": 0
    },
    {
      "sampler": 0,
      "source": 1
    },
    {
      "sampler": 0,
      "source": 2
    },
    {
      "sampler": 0,
      "source": 3
    },
    {
      "sampler": 0,
      "source": 4
    }
  ]
}
